<svg width="104" height="22" viewBox="0 0 104 22" fill="none" xmlns="http://www.w3.org/2000/svg">
<path d="M0.273438 12.7578C0.273438 13.6641 0.609375 14.5469 1.28125 15.4062C2.1875 16.5312 3.40625 17.1016 4.9375 17.1172V15.1016C3.85938 15.1016 3.07812 14.625 2.59375 13.6719C2.42188 13.3281 2.33594 13.0234 2.33594 12.7578V4.85938C2.33594 4.3125 2.57031 3.78906 3.03906 3.28906C3.55469 2.77344 4.1875 2.50781 4.9375 2.49219V0.476562C3.15625 0.460938 1.82812 1.19531 0.953125 2.67969C0.5 3.44531 0.273438 4.17188 0.273438 4.85938V12.7578ZM6.08594 17.1172C7.33594 17.1172 8.40625 16.6406 9.29688 15.6875C10.0938 14.8281 10.4922 13.8438 10.4922 12.7344L8.54688 12.2656C8.54688 12.4375 8.53906 12.5625 8.52344 12.6406C8.49219 13 8.44531 13.2656 8.38281 13.4375C8.24219 13.8906 7.97656 14.2578 7.58594 14.5391C7.21094 14.8203 6.86719 14.9844 6.55469 15.0312L6.08594 15.1016V17.1172ZM6.08594 2.49219C6.08594 2.49219 6.3125 2.54688 6.76562 2.65625C7.54688 2.98438 8.08594 3.53125 8.38281 4.29688C8.44531 4.48438 8.49219 4.73438 8.52344 5.04688V5.42188L10.4922 4.90625C10.4922 3.71875 10 2.65625 9.01562 1.71875C8.10938 0.890625 7.13281 0.476562 6.08594 0.476562V2.49219ZM12.1094 13.5312V7.74219C12.1094 7.00781 12.4375 6.28906 13.0938 5.58594C13.9062 4.74219 14.9219 4.32031 16.1406 4.32031V6.21875C15.2188 6.21875 14.5781 6.60156 14.2188 7.36719C14.1094 7.60156 14.0547 7.83594 14.0547 8.07031V13.2266C14.0547 13.8047 14.3203 14.2969 14.8516 14.7031C15.2266 14.9844 15.6562 15.125 16.1406 15.125V17.0234C14.6562 17.0234 13.5078 16.4219 12.6953 15.2188C12.3047 14.625 12.1094 14.0625 12.1094 13.5312ZM17.1484 17.0234V15.125C17.9766 15.125 18.5703 14.75 18.9297 14C19.0547 13.75 19.1172 13.5078 19.1172 13.2734V8.07031C19.1172 7.42969 18.8438 6.92188 18.2969 6.54688C17.9531 6.32812 17.5625 6.21875 17.125 6.21875V4.32031C18.5625 4.32031 19.6719 4.90625 20.4531 6.07812C20.8438 6.65625 21.0391 7.21094 21.0391 7.74219V13.5312C21.0391 14.2969 20.7109 15.0391 20.0547 15.7578C19.2891 16.5859 18.3203 17.0078 17.1484 17.0234ZM22.6328 13.5312V7.74219C22.6484 6.89844 23.0312 6.11719 23.7812 5.39844C24.5156 4.69531 25.375 4.34375 26.3594 4.34375H28.2109V6.24219H26.3828C25.7422 6.24219 25.2188 6.53125 24.8125 7.10938C24.6406 7.375 24.5547 7.625 24.5547 7.85938V13.4844C24.5547 13.9844 24.8359 14.4141 25.3984 14.7734C25.7266 14.9922 26.0625 15.1016 26.4062 15.1016H28.2109V17H26.4297C25.0391 17 23.9609 16.3984 23.1953 15.1953C22.8203 14.6016 22.6328 14.0469 22.6328 13.5312ZM29.3359 17L29.3594 0.429688H31.375V17H29.3359ZM33.25 13.5312V7.71875C33.2656 7 33.6094 6.28906 34.2812 5.58594C35.0938 4.75781 36.0781 4.33594 37.2344 4.32031V6.17188C36.4844 6.17188 35.8984 6.5 35.4766 7.15625C35.3047 7.4375 35.2188 7.69531 35.2188 7.92969V9.52344H40.4688V7.92969C40.4688 7.22656 40.1094 6.71094 39.3906 6.38281C39.0625 6.22656 38.7266 6.14844 38.3828 6.14844V4.32031C39.4609 4.32031 40.4219 4.70312 41.2656 5.46875C41.9688 6.14062 42.3281 6.88281 42.3438 7.69531V11.4219H35.2188V13.5312C35.2188 13.9688 35.4688 14.375 35.9688 14.75C36.375 15.0312 36.8047 15.1719 37.2578 15.1719V17C35.8359 17 34.7188 16.4219 33.9062 15.2656C33.4688 14.6562 33.25 14.0781 33.25 13.5312ZM38.3828 17V15.1484C39.3203 15.1484 40.0234 14.7422 40.4922 13.9297C40.5859 13.7578 40.6562 13.5938 40.7031 13.4375L42.3672 14.0469C42.0859 15.125 41.4453 15.9375 40.4453 16.4844C39.8047 16.8281 39.1172 17 38.3828 17ZM44.125 17H46.1641V0.59375H44.125V17ZM47.3359 17.0234H49.2812C51.1094 17.0234 52.4766 16.3594 53.3828 15.0312C53.9297 14.2188 54.2031 13.3047 54.2031 12.2891C54.1875 10.7891 53.6328 9.61719 52.5391 8.77344C53.4297 8.11719 53.9531 7.16406 54.1094 5.91406C54.1406 5.69531 54.1562 5.48438 54.1562 5.28125C54.1562 3.8125 53.6484 2.63281 52.6328 1.74219C51.7578 0.976562 50.625 0.59375 49.2344 0.59375H47.3359V2.42188H49C50.3281 2.42188 51.2578 2.96094 51.7891 4.03906C52.0078 4.47656 52.1172 4.92969 52.1172 5.39844C52.1172 6.75781 51.4688 7.55469 50.1719 7.78906C49.9375 7.83594 49.6875 7.85938 49.4219 7.85938H47.3359V9.6875H49.4219C50.8906 9.6875 51.7734 10.2656 52.0703 11.4219C52.1328 11.6562 52.1641 11.9062 52.1641 12.1719C52.1641 13.2656 51.7188 14.0938 50.8281 14.6562C50.2188 15.0156 49.4688 15.1953 48.5781 15.1953H47.3359V17.0234ZM55.1641 4.32031H57.25L60.8125 14.2344L58.3984 21.4531H56.4062L58.7031 14.2109L55.1641 4.32031ZM60.3438 9.75781L62.4766 4.32031H64.5391L61.4219 12.5H61.2109L60.3438 9.75781ZM65.5938 17H67.6328V0.59375H65.5938V17ZM68.8047 9.66406H71.3359C73.3828 9.64844 74.6641 8.86719 75.1797 7.32031C75.3828 6.69531 75.4844 5.95312 75.4844 5.09375C75.4844 2.23438 74.1953 0.734375 71.6172 0.59375C71.5234 0.59375 71.4297 0.59375 71.3359 0.59375H68.8047V2.5625H71.0078C72.5859 2.59375 73.3828 3.4375 73.3984 5.09375C73.3672 6.79688 72.5781 7.65625 71.0312 7.67188H68.8047V9.66406ZM76.9844 2.58594C76.9844 2.10156 77.2109 1.75781 77.6641 1.55469C77.8203 1.49219 77.9766 1.46094 78.1328 1.46094C78.6016 1.46094 78.9453 1.67969 79.1641 2.11719C79.2266 2.27344 79.2578 2.42969 79.2578 2.58594C79.2578 3.05469 79.0391 3.39844 78.6016 3.61719C78.4453 3.67969 78.2891 3.71094 78.1328 3.71094C77.6484 3.71094 77.2969 3.49219 77.0781 3.05469C77.0156 2.89844 76.9844 2.74219 76.9844 2.58594ZM77.1484 17V4.64844H79.1172V17H77.1484ZM80.5234 17L83.8516 10.5781L80.6172 4.32031H82.6094L84.9766 8.51562L87.3438 4.32031H89.3594L86.125 10.5781L89.4297 17H87.4375L84.9766 12.5938L82.5156 17H80.5234ZM90.5312 13.5312V7.71875C90.5469 7 90.8906 6.28906 91.5625 5.58594C92.375 4.75781 93.3594 4.33594 94.5156 4.32031V6.17188C93.7656 6.17188 93.1797 6.5 92.7578 7.15625C92.5859 7.4375 92.5 7.69531 92.5 7.92969V9.52344H97.75V7.92969C97.75 7.22656 97.3906 6.71094 96.6719 6.38281C96.3438 6.22656 96.0078 6.14844 95.6641 6.14844V4.32031C96.7422 4.32031 97.7031 4.70312 98.5469 5.46875C99.25 6.14062 99.6094 6.88281 99.625 7.69531V11.4219H92.5V13.5312C92.5 13.9688 92.75 14.375 93.25 14.75C93.6562 15.0312 94.0859 15.1719 94.5391 15.1719V17C93.1172 17 92 16.4219 91.1875 15.2656C90.75 14.6562 90.5312 14.0781 90.5312 13.5312ZM95.6641 17V15.1484C96.6016 15.1484 97.3047 14.7422 97.7734 13.9297C97.8672 13.7578 97.9375 13.5938 97.9844 13.4375L99.6484 14.0469C99.3672 15.125 98.7266 15.9375 97.7266 16.4844C97.0859 16.8281 96.3984 17 95.6641 17ZM101.57 17V0.453125H103.656V17H101.57Z" fill="url(#paint0_linear_854_73)"/>
<defs>
<linearGradient id="paint0_linear_854_73" x1="52" y1="-8" x2="52" y2="28" gradientUnits="userSpaceOnUse">
<stop stop-color="#A768E8"/>
<stop offset="1" stop-color="#7093D4" stop-opacity="0.8"/>
</linearGradient>
</defs>
</svg>
