<svg width="28" height="28" viewBox="0 0 28 28" fill="none" xmlns="http://www.w3.org/2000/svg">
<path fill-rule="evenodd" clip-rule="evenodd" d="M12.9819 0.0143816C10.1288 0.305475 7.89187 1.12232 5.79693 2.63799C5.10523 3.1385 4.78916 3.40995 4.12119 4.07737C3.43112 4.76689 3.11383 5.13401 2.63431 5.79773C1.32661 7.60785 0.470342 9.70907 0.119709 11.9684C-0.0297985 12.9318 -0.041303 14.8935 0.0967002 15.8869C0.409714 18.1399 1.3062 20.3749 2.6308 22.2047C3.13145 22.8962 3.40297 23.2122 4.07059 23.88C4.7603 24.5698 5.12753 24.887 5.79143 25.3664C7.60207 26.6738 9.70388 27.5298 11.9638 27.8803C12.9275 28.0298 14.8898 28.0413 15.8835 27.9033C18.4675 27.5445 21.0594 26.397 23.0175 24.7448C23.4006 24.4216 24.3618 23.4613 24.7187 23.0452C26.3409 21.1543 27.4774 18.6359 27.8803 16.0396C28.0296 15.0774 28.0414 13.1132 27.9037 12.1264C27.3139 7.89864 24.8596 4.18496 21.1983 1.97998C19.6247 1.03234 17.7125 0.356366 15.9089 0.110259C15.3504 0.0340254 13.4116 -0.0294859 12.9819 0.0143816ZM12.8365 6.53269C12.7779 6.59131 10.1709 6.31579 10.0889 6.24231C10.0158 6.17681 10.5082 5.28943 10.9497 4.69101C11.4767 3.97671 12.0522 3.4303 12.6127 3.11193L12.8292 2.98898L12.8426 4.75111C12.85 5.72027 12.8472 6.522 12.8365 6.53269ZM15.7562 3.35809C16.1871 3.67137 16.8404 4.37452 17.2027 4.91508C17.6252 5.54531 17.9703 6.18867 17.9134 6.23997C17.8642 6.28439 16.7772 6.42653 16.138 6.47223C15.914 6.48821 15.5991 6.51416 15.4381 6.52989L15.1454 6.55849V4.77106V2.98359L15.3108 3.06903C15.4018 3.11605 15.6022 3.24613 15.7562 3.35809ZM9.00679 3.45692C8.98704 3.49193 8.91867 3.59122 8.85489 3.67758C8.67402 3.92246 8.21389 4.74526 7.97133 5.25742L7.75127 5.72205L7.33777 5.59539C7.11033 5.52572 6.77868 5.40287 6.60082 5.32241L6.27747 5.1761L6.62627 4.88949C7.06528 4.52882 7.98803 3.91692 8.53892 3.62124C8.98419 3.38226 9.06513 3.35381 9.00679 3.45692ZM19.4356 3.61229C19.9843 3.89941 20.9358 4.52557 21.3734 4.88745L21.722 5.17569L21.4243 5.3077C21.2606 5.38032 20.932 5.50399 20.694 5.58261L20.2613 5.72551L19.9806 5.15737C19.6691 4.52684 19.4078 4.05712 19.2401 3.82587C19.0535 3.56852 18.9499 3.39331 18.9844 3.39331C19.0024 3.39331 19.2055 3.49183 19.4356 3.61229ZM5.47343 7.32302C5.73941 7.43533 6.17088 7.60286 6.43222 7.69528C6.69357 7.7877 6.92045 7.87635 6.93633 7.89228C6.95222 7.90816 6.89383 8.202 6.80658 8.54525C6.614 9.30281 6.46801 10.0847 6.36686 10.8997C6.30043 11.4351 6.18808 12.6165 6.18661 12.7953C6.1862 12.8451 5.76501 12.8589 4.25171 12.8589C3.1878 12.8589 2.31732 12.8473 2.31732 12.8331C2.31732 12.819 2.3524 12.5728 2.39521 12.2861C2.48246 11.702 2.70155 10.8004 2.90517 10.1872C3.1402 9.47945 3.70621 8.32943 4.16436 7.62882L4.60606 6.95345L4.79792 7.0361C4.9035 7.08159 5.20745 7.2107 5.47343 7.32302ZM23.8224 7.61085C24.595 8.79625 25.0229 9.77762 25.3785 11.1795C25.4937 11.634 25.6827 12.6611 25.6827 12.8331C25.6827 12.8473 24.8122 12.8589 23.7483 12.8589C22.6844 12.8589 21.8137 12.8417 21.8134 12.8208C21.8117 12.6649 21.6986 11.4915 21.6332 10.9505C21.53 10.0969 21.3869 9.31599 21.1998 8.58525C21.1176 8.26398 21.0503 7.97477 21.0503 7.94256C21.0503 7.91034 21.1133 7.86001 21.1903 7.83065C21.2673 7.80134 21.5479 7.69711 21.8139 7.59915C22.0799 7.50113 22.538 7.31783 22.832 7.19177C23.126 7.06571 23.373 6.96103 23.381 6.95915C23.3889 6.95722 23.5875 7.2505 23.8224 7.61085ZM10.1401 8.5821C10.7726 8.67416 12.4188 8.83614 12.7401 8.83792L12.8546 8.83859V10.8488V12.8589H10.6626H8.47066L8.50253 12.49C8.63182 10.9938 8.76382 10.1388 9.01641 9.16103C9.1116 8.79258 9.18949 8.47518 9.18949 8.45579C9.18949 8.43635 9.241 8.43319 9.30402 8.44876C9.36704 8.46434 9.74328 8.52434 10.1401 8.5821ZM18.9557 9.0452C19.2119 10.0155 19.3699 11.0289 19.4967 12.5154L19.526 12.8589H17.3357H15.1454V10.8488V8.83859L15.2599 8.83792C15.7817 8.83497 18.4321 8.53747 18.6323 8.45935C18.7677 8.40653 18.8049 8.47396 18.9557 9.0452ZM6.18655 15.1872C6.18676 15.2082 6.20946 15.4887 6.2369 15.8106C6.35912 17.2429 6.56346 18.5129 6.83992 19.5588L6.98994 20.1263L6.39715 20.3333C6.07105 20.4472 5.54088 20.6549 5.2189 20.795L4.6335 21.0498L4.51805 20.9111C4.36111 20.7226 3.73528 19.7158 3.56847 19.3834C3.1403 18.5303 2.86206 17.7824 2.62744 16.8538C2.50756 16.3794 2.31732 15.3495 2.31732 15.1748C2.31732 15.1606 3.1878 15.149 4.25171 15.149C5.31562 15.149 6.1863 15.1662 6.18655 15.1872ZM12.8546 17.1546V19.1602L12.4092 19.1915C11.6986 19.2415 10.1057 19.4196 9.64478 19.5006C9.4122 19.5415 9.2182 19.5696 9.21362 19.563C9.16693 19.4955 8.81131 17.9355 8.73526 17.4645C8.64715 16.9187 8.60897 16.5918 8.50202 15.4671L8.47178 15.149H10.6632H12.8546V17.1546ZM19.4994 15.4162C19.3893 16.6101 19.3495 16.9424 19.2401 17.5823C19.1187 18.2925 18.834 19.4673 18.7674 19.5329C18.7491 19.5509 18.4822 19.5247 18.1742 19.4747C17.6458 19.3889 16.4157 19.2561 15.5399 19.1903L15.1454 19.1607V17.1549V15.149H17.3347H19.524L19.4994 15.4162ZM25.6827 15.1774C25.6827 15.2665 25.564 15.9932 25.4962 16.3195C25.1828 17.8272 24.643 19.1465 23.8339 20.3825C23.4292 21.0007 23.3872 21.0479 23.2795 21.0062C23.2153 20.9814 22.9453 20.8656 22.6793 20.7488C22.4133 20.6321 21.934 20.4464 21.6143 20.3362C21.2945 20.2259 21.0259 20.1288 21.0175 20.1204C21.0091 20.112 21.0704 19.8545 21.1537 19.5482C21.4147 18.5888 21.6386 17.2291 21.7359 16.0141C21.7527 15.8042 21.7793 15.5237 21.795 15.3907L21.8235 15.149H23.7531C24.8143 15.149 25.6827 15.1618 25.6827 15.1774ZM12.8546 23.2183V24.9772L12.6062 24.8421C11.9718 24.4969 11.1797 23.6734 10.6232 22.7807C10.1763 22.0638 10.0462 21.7987 10.1216 21.7587C10.2308 21.7008 12.0538 21.4933 12.6892 21.4664L12.8546 21.4594V23.2183ZM15.8835 21.5112C16.5554 21.5671 17.7821 21.7076 17.8798 21.7398C17.9623 21.7671 17.8746 21.9723 17.5536 22.5027C16.8739 23.6256 16.1134 24.4505 15.3996 24.8389L15.1454 24.9772V23.2183C15.1454 21.8449 15.1593 21.4595 15.209 21.4599C15.244 21.4602 15.5475 21.4833 15.8835 21.5112ZM7.94435 22.6633C8.17271 23.1643 8.58453 23.8915 8.86924 24.2966C8.99223 24.4715 9.06818 24.6146 9.0381 24.6146C8.78148 24.6146 6.98266 23.4662 6.31708 22.8775C6.26088 22.8279 6.70212 22.6254 7.30601 22.4237C7.54399 22.3443 7.74501 22.278 7.7527 22.2765C7.76043 22.2749 7.84667 22.449 7.94435 22.6633ZM21.3049 22.6566C21.4868 22.7308 21.6522 22.8071 21.6723 22.8261C21.7957 22.943 19.2625 24.6146 18.9619 24.6146C18.9318 24.6146 19.0078 24.4715 19.1308 24.2966C19.4145 23.8928 19.8271 23.1647 20.0537 22.6677L20.2293 22.2824L20.6017 22.4021C20.8064 22.4679 21.1229 22.5825 21.3049 22.6566Z" fill="white"/>
</svg>
